<svg xmlns="http://www.w3.org/2000/svg" viewBox="0 0 1150 384" font-family="Helvetica, Arial, sans-serif"><rect width="1150" height="384" rx="28" fill="#eee6f3"/><rect x="20" y="20" width="14" height="14" fill="#8900e1"/><g><g transform="translate(0,10)"><g><rect x="230" y="110" width="150" height="170" rx="10" fill="#ffffff" stroke="#57068c" stroke-width="4"/><text x="305" y="136" fill="#57068c" font-size="17" font-weight="700" text-anchor="middle">MEMORY</text><text x="237" y="166" fill="#8900e1" font-size="12" font-weight="700" text-anchor="start" style="font-family: &quot;SF Mono&quot;, Menlo, Consolas, monospace;">instrAddr</text><text x="237" y="254" fill="#8900e1" font-size="12" font-weight="700" text-anchor="start" style="font-family: &quot;SF Mono&quot;, Menlo, Consolas, monospace;">dataAddr</text><text x="237" y="280" fill="#8900e1" font-size="12" font-weight="700" text-anchor="start" style="font-family: &quot;SF Mono&quot;, Menlo, Consolas, monospace;">dataIn</text><text x="373" y="166" fill="#8900e1" font-size="12" font-weight="700" text-anchor="end" style="font-family: &quot;SF Mono&quot;, Menlo, Consolas, monospace;">instrOut</text><text x="373" y="218" fill="#8900e1" font-size="12" font-weight="700" text-anchor="end" style="font-family: &quot;SF Mono&quot;, Menlo, Consolas, monospace;">dataOut</text></g><g><rect x="55" y="140" width="100" height="44" rx="10" fill="#ffffff" stroke="#57068c" stroke-width="4"/><text x="105" y="166" fill="#57068c" font-size="17" font-weight="700" text-anchor="middle">PC</text></g><g><rect x="800" y="185" width="140" height="165" rx="10" fill="#fbeceb" stroke="#c1272d" stroke-width="4"/><text x="870" y="312" fill="#57068c" font-size="17" font-weight="700" text-anchor="middle">REG FILE</text><text x="807" y="209" fill="#8900e1" font-size="12" font-weight="700" text-anchor="start" style="font-family: &quot;SF Mono&quot;, Menlo, Consolas, monospace;">SRC1</text><text x="807" y="249" fill="#8900e1" font-size="12" font-weight="700" text-anchor="start" style="font-family: &quot;SF Mono&quot;, Menlo, Consolas, monospace;">SRC2</text><text x="807" y="290" fill="#8900e1" font-size="12" font-weight="700" text-anchor="start" style="font-family: &quot;SF Mono&quot;, Menlo, Consolas, monospace;">TGT</text><text x="807" y="332" fill="#8900e1" font-size="12" font-weight="700" text-anchor="start" style="font-family: &quot;SF Mono&quot;, Menlo, Consolas, monospace;">TGTdataIn</text><text x="933" y="234" fill="#8900e1" font-size="12" font-weight="700" text-anchor="end" style="font-family: &quot;SF Mono&quot;, Menlo, Consolas, monospace;">SRC2dataOut</text><text x="933" y="264" fill="#8900e1" font-size="12" font-weight="700" text-anchor="end" style="font-family: &quot;SF Mono&quot;, Menlo, Consolas, monospace;">SRC1dataOut</text></g><g><polygon points="1010,205 1100,225 1100,275 1010,295" fill="#ffffff" stroke="#57068c" stroke-width="4" stroke-linejoin="round"/><text x="1050" y="262" fill="#57068c" font-size="18" font-weight="700" text-anchor="middle">ALU</text><text x="1017" y="234" fill="#8900e1" font-size="12" font-weight="700" text-anchor="start" style="font-family: &quot;SF Mono&quot;, Menlo, Consolas, monospace;">in1</text><text x="1017" y="274" fill="#8900e1" font-size="12" font-weight="700" text-anchor="start" style="font-family: &quot;SF Mono&quot;, Menlo, Consolas, monospace;">in2</text><text x="1094" y="243" fill="#8900e1" font-size="12" font-weight="700" text-anchor="end" style="font-family: &quot;SF Mono&quot;, Menlo, Consolas, monospace;">result</text><text x="1046" y="200" fill="#8900e1" font-size="12" font-weight="700" text-anchor="end" style="font-family: &quot;SF Mono&quot;, Menlo, Consolas, monospace;">FUNCalu</text></g><g><path d="M155 162 L230 162" fill="none" stroke="#404040" stroke-width="3" stroke-linecap="round" stroke-linejoin="round"/><polygon points="230,162,218,155,218,169" fill="#404040" stroke="none" stroke-width="0" stroke-linejoin="round"/><text x="192" y="152" fill="#6d6d6d" font-size="12" font-weight="400" text-anchor="middle" font-style="italic">pc</text></g><g><rect x="155" y="70" width="70" height="34" rx="8" fill="#ffffff" stroke="#57068c" stroke-width="3"/><text x="190" y="92" fill="#57068c" font-size="13" font-weight="700" text-anchor="middle">+1</text></g><g><circle cx="190" cy="162" r="4.5" fill="#404040" stroke="none" stroke-width="0"/></g><g><path d="M190 162 L190 104" fill="none" stroke="#404040" stroke-width="3" stroke-linecap="round" stroke-linejoin="round"/><polygon points="190,104,183,116,197,116" fill="#404040" stroke="none" stroke-width="0" stroke-linejoin="round"/></g><g><path d="M190 70 L190 50 L105 50 L105 140" fill="none" stroke="#404040" stroke-width="3" stroke-linecap="round" stroke-linejoin="round"/><polygon points="105,140,98,128,112,128" fill="#404040" stroke="none" stroke-width="0" stroke-linejoin="round"/></g><g><path d="M380 162 L430 162" fill="none" stroke="#404040" stroke-width="3" stroke-linecap="round" stroke-linejoin="round"/><polygon points="430,162,418,155,418,169" fill="#404040" stroke="none" stroke-width="0" stroke-linejoin="round"/></g><g><rect x="430" y="140" width="52.5" height="36" rx="0" fill="#e2cdf2" stroke="#57068c" stroke-width="3"/><text x="456.25" y="163" fill="#57068c" font-size="12" font-weight="700" text-anchor="middle" style="font-family: &quot;SF Mono&quot;, Menlo, Consolas, monospace;">opcode</text><rect x="482.5" y="140" width="52.5" height="36" rx="0" fill="#f7f0ff" stroke="#57068c" stroke-width="3"/><text x="508.75" y="163" fill="#57068c" font-size="14" font-weight="700" text-anchor="middle" style="font-family: &quot;SF Mono&quot;, Menlo, Consolas, monospace;">rA</text><rect x="535" y="140" width="52.5" height="36" rx="0" fill="#f7f0ff" stroke="#57068c" stroke-width="3"/><text x="561.25" y="163" fill="#57068c" font-size="14" font-weight="700" text-anchor="middle" style="font-family: &quot;SF Mono&quot;, Menlo, Consolas, monospace;">rB</text><rect x="587.5" y="140" width="52.5" height="36" rx="0" fill="#f7f0ff" stroke="#57068c" stroke-width="3"/><text x="613.75" y="163" fill="#57068c" font-size="14" font-weight="700" text-anchor="middle" style="font-family: &quot;SF Mono&quot;, Menlo, Consolas, monospace;">rC</text><rect x="640" y="140" width="70" height="36" rx="0" fill="#f7f0ff" stroke="#57068c" stroke-width="3"/><text x="675" y="163" fill="#57068c" font-size="14" font-weight="700" text-anchor="middle" style="font-family: &quot;SF Mono&quot;, Menlo, Consolas, monospace;">func</text><rect x="482.5" y="122" width="227.5" height="12" rx="4" fill="#f3e9ff" stroke="#8900e1" stroke-width="2"/><text x="596" y="132" fill="#8900e1" font-size="11" font-weight="700" text-anchor="middle" style="font-family: &quot;SF Mono&quot;, Menlo, Consolas, monospace;">imm13</text><rect x="587.5" y="108" width="122.5" height="12" rx="4" fill="#f3e9ff" stroke="#8900e1" stroke-width="2"/><text x="648" y="118" fill="#8900e1" font-size="11" font-weight="700" text-anchor="middle" style="font-family: &quot;SF Mono&quot;, Menlo, Consolas, monospace;">imm7</text></g><g><path d="M561 176 L561 205 L800 205" fill="none" stroke="#c1272d" stroke-width="5" stroke-linecap="round" stroke-linejoin="round"/><polygon points="800,205,788,198,788,212" fill="#c1272d" stroke="none" stroke-width="0" stroke-linejoin="round"/><text x="690" y="198" fill="#6d6d6d" font-size="12" font-weight="400" text-anchor="middle" font-style="italic">rB</text></g><g><path d="M508 176 L508 237 L785 237 L785 245 L800 245" fill="none" stroke="#c1272d" stroke-width="5" stroke-linecap="round" stroke-linejoin="round"/><polygon points="800,245,788,238,788,252" fill="#c1272d" stroke="none" stroke-width="0" stroke-linejoin="round"/><text x="655" y="230" fill="#6d6d6d" font-size="12" font-weight="400" text-anchor="middle" font-style="italic">rA</text></g><g><path d="M940 230 L1010 230" fill="none" stroke="#c1272d" stroke-width="5" stroke-linecap="round" stroke-linejoin="round"/><polygon points="1010,230,998,223,998,237" fill="#c1272d" stroke="none" stroke-width="0" stroke-linejoin="round"/></g><g><path d="M940 260 L975 260 L975 270 L1010 270" fill="none" stroke="#404040" stroke-width="3" stroke-linecap="round" stroke-linejoin="round"/><polygon points="1010,270,998,263,998,277" fill="#404040" stroke="none" stroke-width="0" stroke-linejoin="round"/></g></g></g></svg>