<svg xmlns="http://www.w3.org/2000/svg" viewBox="0 0 400 260" font-family="Helvetica, Arial, sans-serif">
  <rect x="0" y="0" width="400" height="260" rx="24" fill="#eee6f3"/>
  <rect x="20" y="20" width="12" height="12" fill="#8900e1"/>
  <circle cx="382" cy="240" r="6" fill="#7b5aa6"/>

  <!-- input wires -->
  <line x1="40" y1="95" x2="135" y2="95" stroke="#404040" stroke-width="6" stroke-linecap="round"/>
  <circle cx="40" cy="95" r="6" fill="#57068c"/>
  <text x="26" y="78" fill="#404040" font-size="22" font-weight="600">A</text>

  <line x1="40" y1="145" x2="135" y2="145" stroke="#404040" stroke-width="6" stroke-linecap="round"/>
  <circle cx="40" cy="145" r="6" fill="#57068c"/>
  <text x="26" y="168" fill="#404040" font-size="22" font-weight="600">B</text>

  <!-- output wire -->
  <line x1="278" y1="120" x2="340" y2="120" stroke="#404040" stroke-width="6" stroke-linecap="round"/>
  <circle cx="340" cy="120" r="6" fill="#57068c"/>
  <text x="350" y="128" fill="#404040" font-size="22" font-weight="600">Y</text>

  <!-- curved-back, pointed-front body -->
  <path d="M120,70 Q150,120 120,170 C165,170 210,148 250,120 C210,92 165,70 120,70 Z"
        fill="#ffffff" stroke="#57068c" stroke-width="7" stroke-linejoin="round"/>

  <!-- inversion bubble -->
  <circle cx="264" cy="120" r="14" fill="#ffffff" stroke="#8900e1" stroke-width="6"/>

  <!-- labels -->
  <text x="200" y="222" fill="#57068c" font-size="22" font-weight="700" text-anchor="middle" letter-spacing="3">NOR</text>
  <text x="200" y="245" fill="#6d6d6d" font-size="15" text-anchor="middle" letter-spacing="0.5">Y = &#172;(A + B)</text>
</svg>
